<svg width="449" height="116" viewBox="0 0 449 116" fill="none" xmlns="http://www.w3.org/2000/svg">
<path d="M11.3905 34.5168H0V104.194H11.3905V34.5168Z" fill="url(#paint0_linear)"/>
<path d="M54.1816 25.7107H42.7911V104.348H54.1816V25.7107Z" fill="url(#paint1_linear)"/>
<path d="M32.786 3H21.3956V104.348H32.786V3Z" fill="url(#paint2_linear)"/>
<path d="M75.5774 48.4214H64.187V104.194H75.5774V48.4214Z" fill="url(#paint3_linear)"/>
<path d="M153.156 48.2668L129.913 87.8174L106.516 48.2668H100.051V104.657H107.748V63.8708L127.912 97.8595H131.606L151.924 63.5618L152.078 113H159.774L159.62 48.2668H153.156Z" fill="black"/>
<path d="M177.322 76.8483H205.49V69.8961H177.322V55.2191H209.031V48.2668H169.318V104.657H210.108V97.7051H177.322V76.8483Z" fill="black"/>
<path d="M320.934 79.0112C323.089 75.9213 324.167 72.2135 324.167 67.8876C324.167 61.7079 322.012 56.9185 317.856 53.5197C313.7 49.9663 308.005 48.2668 300.77 48.2668H278.913V104.657H286.917V87.5084H300.77C301.694 87.5084 302.771 87.5084 304.31 87.3539L322.474 113H331.247L311.853 85.809C315.855 84.264 318.933 82.1011 320.934 79.0112ZM300.616 80.7107H286.917V55.2191H300.616C305.696 55.2191 309.544 56.3006 312.314 58.4635C314.931 60.6264 316.317 63.7163 316.317 67.8876C316.317 72.059 314.931 75.1489 312.314 77.3118C309.544 79.4747 305.696 80.7107 300.616 80.7107Z" fill="black"/>
<path d="M376.809 51.3567C372.191 48.8848 367.112 47.6489 361.57 47.6489C355.875 47.6489 350.796 48.8848 346.178 51.3567C341.56 53.8286 338.02 57.2275 335.403 61.7079C332.786 66.0337 331.555 70.9775 331.555 76.3848C331.555 81.7921 332.786 86.736 335.403 91.0618C338.02 95.3876 341.56 98.941 346.178 101.413C350.796 103.885 355.875 105.121 361.57 105.121C367.112 105.121 372.191 103.885 376.809 101.413C381.427 98.941 384.967 95.5421 387.43 91.0618C389.893 86.5815 391.278 81.7921 391.278 76.2303C391.278 70.823 390.047 65.8792 387.43 61.3989C384.967 57.382 381.427 53.8286 376.809 51.3567ZM380.503 87.5084C378.656 90.7528 376.039 93.3792 372.653 95.2331C369.421 97.0871 365.726 98.014 361.57 98.014C357.414 98.014 353.72 97.0871 350.334 95.2331C346.948 93.3792 344.331 90.7528 342.484 87.5084C340.637 84.264 339.713 80.5562 339.713 76.3848C339.713 72.368 340.637 68.6601 342.484 65.2612C344.331 62.0168 346.948 59.3904 350.334 57.5365C353.72 55.6826 357.414 54.7556 361.57 54.7556C365.726 54.7556 369.421 55.6826 372.653 57.5365C375.885 59.3904 378.502 62.0168 380.503 65.2612C382.35 68.5056 383.274 72.2135 383.274 76.3848C383.274 80.5562 382.35 84.264 380.503 87.5084Z" fill="black"/>
<path d="M440.996 39.9242V90.2893L407.286 48.2669H400.821V104.657H408.825V62.6348L442.535 104.657H449V39.9242H440.996Z" fill="black"/>
<path d="M238.738 39.9242H230.888V48.2669H216.881V55.2191H230.888V63.8708V104.657H238.738V63.8708V55.2191H272.14V48.2669H238.738V39.9242Z" fill="black"/>
<defs>
<linearGradient id="paint0_linear" x1="-15.4047" y1="95.9216" x2="30.8287" y2="38.2425" gradientUnits="userSpaceOnUse">
<stop stop-color="#7953E0"/>
<stop offset="0.3779" stop-color="#7C51E2"/>
<stop offset="0.6415" stop-color="#854CE9"/>
<stop offset="0.8697" stop-color="#9443F5"/>
<stop offset="1" stop-color="#A13BFF"/>
</linearGradient>
<linearGradient id="paint1_linear" x1="9.46678" y1="114.03" x2="54.9531" y2="57.2832" gradientUnits="userSpaceOnUse">
<stop stop-color="#7953E0"/>
<stop offset="0.3779" stop-color="#7C51E2"/>
<stop offset="0.6415" stop-color="#854CE9"/>
<stop offset="0.8697" stop-color="#9443F5"/>
<stop offset="1" stop-color="#A13BFF"/>
</linearGradient>
<linearGradient id="paint2_linear" x1="-9.76752" y1="99.944" x2="36.7345" y2="41.93" gradientUnits="userSpaceOnUse">
<stop stop-color="#7953E0"/>
<stop offset="0.3779" stop-color="#7C51E2"/>
<stop offset="0.6415" stop-color="#854CE9"/>
<stop offset="0.8697" stop-color="#9443F5"/>
<stop offset="1" stop-color="#A13BFF"/>
</linearGradient>
<linearGradient id="paint3_linear" x1="27.3983" y1="129.754" x2="74.8096" y2="70.6051" gradientUnits="userSpaceOnUse">
<stop stop-color="#7953E0"/>
<stop offset="0.3779" stop-color="#7C51E2"/>
<stop offset="0.6415" stop-color="#854CE9"/>
<stop offset="0.8697" stop-color="#9443F5"/>
<stop offset="1" stop-color="#A13BFF"/>
</linearGradient>
</defs>
</svg>
